<svg xmlns="http://www.w3.org/2000/svg" xmlns:xlink="http://www.w3.org/1999/xlink" width="1000" zoomAndPan="magnify" viewBox="0 0 750 374.999991" height="500" preserveAspectRatio="xMidYMid meet" version="1.0"><path fill="#00406e" d="M 14.539062 96.101562 L 14.539062 141.738281 L 61.6875 141.738281 L 61.6875 280.460938 L 120.425781 280.460938 L 120.425781 141.738281 L 167.566406 141.738281 L 167.566406 96.101562 " fill-opacity="1" fill-rule="nonzero"/><path fill="#00406e" d="M 411.6875 100.691406 L 446.394531 159.207031 L 480.605469 100.691406 L 545.753906 100.691406 L 474.070312 202.550781 L 474.070312 276.5 L 417.96875 276.5 L 417.96875 202.550781 L 346.808594 100.691406 " fill-opacity="1" fill-rule="nonzero"/><path fill="#00406e" d="M 617.621094 162.191406 C 602.28125 159.464844 593.214844 157.226562 593.214844 148.738281 C 593.214844 139.789062 603.785156 137.304688 613.347656 137.304688 C 622.394531 137.304688 635.96875 138.804688 646.300781 143.769531 C 654.085938 147.753906 657.121094 151.738281 659.878906 155.226562 L 674.5 143.132812 L 674.5 178.59375 C 659.488281 169.4375 638.59375 165.769531 617.621094 162.191406 M 678.585938 67.175781 C 676.308594 67.175781 674.5 69 674.5 71.242188 L 674.5 109.113281 C 672.765625 108.128906 670.9375 107.140625 668.933594 106.171875 C 654.339844 98.953125 635.746094 94.964844 615.355469 94.964844 C 583.417969 94.964844 553.488281 105.171875 541.917969 131.074219 C 538.652344 138.035156 536.882812 146.023438 536.882812 153.738281 C 536.882812 190.847656 568.832031 200.8125 585.164062 205.042969 C 592.476562 206.785156 625.164062 212.5 631.457031 214.742188 C 641.261719 217.992188 641.261719 224.46875 641.261719 225.699219 C 641.261719 238.414062 619.140625 238.890625 614.605469 238.890625 C 606.054688 238.890625 596.988281 237.402344 589.703125 234.917969 C 574.359375 229.9375 570.085938 223.460938 565.058594 215.753906 L 522.042969 243.140625 C 530.09375 252.855469 543.164062 268.527344 571.355469 276.5 C 585.164062 280.472656 599.261719 281.726562 612.589844 281.726562 C 621.546875 281.726562 652.175781 281.710938 674.5 264.355469 L 674.5 303.570312 C 674.5 305.792969 676.308594 307.617188 678.585938 307.617188 C 680.851562 307.617188 682.671875 305.792969 682.671875 303.570312 L 682.671875 71.242188 C 682.671875 69 680.851562 67.175781 678.585938 67.175781 " fill-opacity="1" fill-rule="nonzero"/><path fill="#00406e" d="M 271.71875 238.886719 C 263.175781 238.886719 254.117188 237.402344 246.808594 234.914062 C 231.464844 229.929688 227.1875 223.460938 222.179688 215.746094 L 207.050781 225.351562 L 207.050781 187.371094 C 217.785156 198.082031 232.710938 202.546875 242.292969 205.039062 C 249.578125 206.777344 282.273438 212.492188 288.5625 214.738281 C 298.378906 217.984375 298.378906 224.46875 298.378906 225.691406 C 298.378906 238.40625 276.242188 238.886719 271.71875 238.886719 M 274.738281 162.183594 C 259.394531 159.464844 250.332031 157.21875 250.332031 148.730469 C 250.332031 139.78125 260.902344 137.304688 270.449219 137.304688 C 279.503906 137.304688 293.101562 138.804688 303.414062 143.761719 C 311.207031 147.746094 314.230469 151.734375 316.992188 155.222656 L 352.214844 126.085938 C 345.917969 119.621094 339.367188 112.644531 326.050781 106.171875 C 311.460938 98.945312 292.851562 94.964844 272.46875 94.964844 C 246.316406 94.964844 221.542969 101.804688 207.050781 118.46875 L 207.050781 71.238281 C 207.050781 68.992188 205.242188 67.167969 202.976562 67.167969 C 200.707031 67.167969 198.863281 68.992188 198.863281 71.238281 L 198.863281 303.566406 C 198.863281 305.785156 200.707031 307.609375 202.976562 307.609375 C 205.242188 307.609375 207.050781 305.785156 207.050781 303.566406 L 207.050781 267.707031 C 213.023438 271.066406 220.074219 274.121094 228.457031 276.492188 C 242.292969 280.46875 256.367188 281.722656 269.695312 281.722656 C 279.503906 281.722656 315.230469 281.722656 337.617188 259.0625 C 345.667969 250.855469 353.484375 237.894531 353.484375 219.472656 C 353.484375 175.886719 314.230469 168.917969 274.738281 162.183594 " fill-opacity="1" fill-rule="nonzero"/><path fill="#00406e" d="M 717.394531 107.589844 L 718.675781 107.589844 C 720.460938 107.589844 721.570312 107.660156 722.035156 107.804688 L 723.085938 108.519531 L 723.457031 109.660156 L 723.085938 110.832031 L 722.039062 111.558594 C 721.601562 111.695312 720.484375 111.769531 718.675781 111.769531 L 717.394531 111.769531 Z M 717.394531 120.53125 L 717.394531 114.203125 L 718.214844 114.203125 C 719.097656 114.203125 719.816406 114.421875 720.398438 114.859375 C 720.964844 115.292969 721.679688 116.355469 722.546875 118.027344 L 723.824219 120.53125 L 727.734375 120.53125 L 725.921875 117.429688 C 725.277344 116.328125 724.894531 115.710938 724.773438 115.554688 C 724.328125 114.972656 723.988281 114.578125 723.726562 114.367188 L 722.640625 113.796875 C 723.957031 113.609375 724.976562 113.117188 725.699219 112.332031 C 726.433594 111.546875 726.792969 110.597656 726.792969 109.488281 C 726.792969 108.683594 726.601562 107.945312 726.214844 107.285156 C 725.824219 106.617188 725.34375 106.132812 724.761719 105.8125 C 724.191406 105.484375 723.378906 105.285156 722.339844 105.195312 C 721.984375 105.171875 720.347656 105.152344 717.402344 105.152344 L 714.273438 105.152344 L 714.273438 120.53125 Z M 713.648438 100.085938 C 711.351562 101.335938 709.542969 103.125 708.226562 105.453125 C 706.914062 107.78125 706.25 110.226562 706.25 112.757812 C 706.25 115.296875 706.902344 117.710938 708.199219 120.007812 C 709.476562 122.296875 711.273438 124.097656 713.585938 125.375 C 715.898438 126.660156 718.308594 127.308594 720.855469 127.308594 C 723.390625 127.308594 725.820312 126.660156 728.121094 125.375 C 730.4375 124.097656 732.234375 122.296875 733.519531 120.007812 C 734.808594 117.710938 735.449219 115.296875 735.449219 112.757812 C 735.449219 110.226562 734.800781 107.78125 733.480469 105.453125 C 732.167969 103.125 730.367188 101.335938 728.058594 100.085938 C 725.757812 98.84375 723.363281 98.21875 720.855469 98.21875 C 718.351562 98.21875 715.953125 98.84375 713.648438 100.085938 M 726.648438 102.59375 C 728.5 103.59375 729.953125 105.03125 731.023438 106.898438 C 732.078125 108.765625 732.613281 110.722656 732.613281 112.769531 C 732.613281 114.804688 732.085938 116.75 731.050781 118.585938 C 730.007812 120.433594 728.558594 121.871094 726.707031 122.914062 C 724.859375 123.945312 722.917969 124.464844 720.867188 124.464844 C 718.832031 124.464844 716.890625 123.945312 715.035156 122.914062 C 713.179688 121.871094 711.738281 120.433594 710.691406 118.585938 C 709.664062 116.75 709.148438 114.804688 709.148438 112.769531 C 709.148438 110.722656 709.675781 108.765625 710.734375 106.898438 C 711.796875 105.03125 713.246094 103.59375 715.089844 102.59375 C 716.933594 101.59375 718.855469 101.09375 720.867188 101.09375 C 722.875 101.09375 724.804688 101.59375 726.648438 102.59375 " fill-opacity="1" fill-rule="nonzero"/></svg>